<svg xmlns="http://www.w3.org/2000/svg" width="1200" height="620" viewBox="0 0 1200 620">
<rect width="1200" height="620" fill="#0c1222"/><rect x="80" y="54" width="1040" height="512" rx="18" fill="#101a30" stroke="#2a3858"/>
<text x="130" y="124" fill="#7dd3fc" font-family="Arial" font-size="15" letter-spacing="4">LLM EVALUATION PLATFORM</text><text x="130" y="182" fill="#e6edf7" font-family="Arial" font-size="48" font-weight="bold">PromptEval</text><text x="130" y="218" fill="#aab8cf" font-family="Arial" font-size="18">Reproducible prompt comparison with regression gates.</text>
<g font-family="Arial"><g fill="#151e35" stroke="#2a3858"><rect x="130" y="270" width="172" height="112" rx="10"/><rect x="320" y="270" width="172" height="112" rx="10"/><rect x="510" y="270" width="172" height="112" rx="10"/><rect x="700" y="270" width="172" height="112" rx="10"/><rect x="890" y="270" width="172" height="112" rx="10"/></g><g fill="#8fa2c4" font-size="11"><text x="150" y="300">RESULTS</text><text x="340" y="300">TASK PASS RATE</text><text x="530" y="300">JUDGE DISAGREEMENT</text><text x="720" y="300">P95 LATENCY</text><text x="910" y="300">EST. COST</text></g><g fill="#e6edf7" font-size="27" font-weight="bold"><text x="150" y="347">27</text><text x="340" y="347">100.0%</text><text x="530" y="347">0.0%</text><text x="720" y="347">4.0 ms</text><text x="910" y="347">$0.00001</text></g></g>
<rect x="130" y="416" width="932" height="104" rx="10" fill="#151e35" stroke="#2a3858"/><text x="154" y="454" fill="#e6edf7" font-family="Arial" font-size="22" font-weight="bold">Latest run</text><text x="154" y="486" fill="#aab8cf" font-family="Arial" font-size="16">Run #1 . dataset vsample-1 . 3 repeats . mock-deterministic-v1</text></svg>
